<svg xmlns="http://www.w3.org/2000/svg" viewBox="0 0 1040 940" width="1040" height="940" role="img" aria-labelledby="gttl gdsc">
<title id="gttl">AI Weekly Organizer daily brief architecture</title>
<desc id="gdsc">A weekday cron job runs one Python script that reads Google Calendar, Gmail, and three Notion databases. A narrow regex plus one batched local-model call filters the inbox. A fixed priority ladder written in Python then decides which single item matters most, with no model involved. Only after that is a locally hosted Llama 3.1 model asked to phrase the sentence, write prep notes, and draft a narrative paragraph, each with a deterministic fallback. The result is one JSON file the Next.js planner renders as a Daily Brief card. Everything runs on a self-hosted Linux server with no subscription and no data leaving the home network.</desc>
<text x="30" y="32" fill="#7c848d" font-size="10.5" font-weight="700" letter-spacing="1.5">MY DATA  ·  READ ONLY</text>
<text x="330" y="32" fill="#7c848d" font-size="10.5" font-weight="700" letter-spacing="1.5">GREEN DECIDES  ·  RED ONLY WRITES</text>
<text x="778" y="32" fill="#7c848d" font-size="10.5" font-weight="700" letter-spacing="1.5">TRIGGER  &amp;  APP DATA</text>
<rect x="330" y="48" width="380" height="142" rx="8" fill="#4c3f91" stroke="#6b5cb8" stroke-width="1.5"/>
<text x="520.0" y="92" text-anchor="middle" fill="#fff" font-size="13.5" font-weight="600">1 · Collect</text>
<text x="520.0" y="109" text-anchor="middle" fill="#e3e3e3" font-size="11">data/daily_brief.py — one job, five reads</text>
<rect x="30" y="48" width="232" height="42" rx="8" fill="#4a4a4a" stroke="#6b6b6b" stroke-width="1.5"/>
<text x="146.0" y="65.0" text-anchor="middle" fill="#fff" font-size="13.5" font-weight="600">Google Calendar</text>
<text x="146.0" y="82.0" text-anchor="middle" fill="#e3e3e3" font-size="11">today's events</text>
<rect x="30" y="98" width="232" height="42" rx="8" fill="#4a4a4a" stroke="#6b6b6b" stroke-width="1.5"/>
<text x="146.0" y="115.0" text-anchor="middle" fill="#fff" font-size="13.5" font-weight="600">Gmail</text>
<text x="146.0" y="132.0" text-anchor="middle" fill="#e3e3e3" font-size="11">unread, primary inbox</text>
<rect x="30" y="148" width="232" height="42" rx="8" fill="#4a4a4a" stroke="#6b6b6b" stroke-width="1.5"/>
<text x="146.0" y="165.0" text-anchor="middle" fill="#fff" font-size="13.5" font-weight="600">Notion</text>
<text x="146.0" y="182.0" text-anchor="middle" fill="#e3e3e3" font-size="11">Tasks · Network · Jobs</text>
<line x1="262" y1="69" x2="321" y2="69" stroke="#9aa0a6" stroke-width="1.6"/>
<polygon points="330,69 321,72.6 321,65.4" fill="#9aa0a6"/>
<line x1="262" y1="119" x2="321" y2="119" stroke="#9aa0a6" stroke-width="1.6"/>
<polygon points="330,119 321,122.6 321,115.4" fill="#9aa0a6"/>
<line x1="262" y1="169" x2="321" y2="169" stroke="#9aa0a6" stroke-width="1.6"/>
<polygon points="330,169 321,172.6 321,165.4" fill="#9aa0a6"/>
<rect x="778" y="48" width="232" height="42" rx="8" fill="#4a4a4a" stroke="#6b6b6b" stroke-width="1.5"/>
<text x="894.0" y="65.0" text-anchor="middle" fill="#fff" font-size="13.5" font-weight="600">Weekday cron</text>
<text x="894.0" y="82.0" text-anchor="middle" fill="#e3e3e3" font-size="11">6:00 AM Eastern</text>
<line x1="778" y1="69" x2="719" y2="69" stroke="#9aa0a6" stroke-width="1.6"/>
<polygon points="710,69 719,72.6 719,65.4" fill="#9aa0a6"/>
<line x1="520.0" y1="190" x2="520.0" y2="211" stroke="#9aa0a6" stroke-width="1.6"/>
<polygon points="520.0,220 516.4,211 523.6,211" fill="#9aa0a6"/>
<rect x="330" y="220" width="380" height="62" rx="8" fill="#4c3f91" stroke="#6b5cb8" stroke-width="1.5"/>
<text x="520.0" y="239.0" text-anchor="middle" fill="#fff" font-size="13.5" font-weight="600">2 · Filter the inbox</text>
<text x="520.0" y="256.0" text-anchor="middle" fill="#e3e3e3" font-size="11">narrow promo regex, then one batched model call</text>
<text x="520.0" y="271.0" text-anchor="middle" fill="#e3e3e3" font-size="11">when it is unsure it keeps the mail</text>
<rect x="622" y="228" width="76" height="17" rx="8.5" fill="#7a2318" stroke="#a3392a" stroke-width="1"/>
<text x="660.0" y="240.5" text-anchor="middle" fill="#ffd9d2" font-size="9.5" font-weight="700" letter-spacing="0.4">MODEL</text>
<line x1="520.0" y1="282" x2="520.0" y2="303" stroke="#9aa0a6" stroke-width="1.6"/>
<polygon points="520.0,312 516.4,303 523.6,303" fill="#9aa0a6"/>
<rect x="330" y="312" width="380" height="104" rx="8" fill="#1a6b5a" stroke="#2a8b76" stroke-width="1.5"/>
<text x="520.0" y="344.0" text-anchor="middle" fill="#fff" font-size="13.5" font-weight="600">3 · Decide what matters</text>
<text x="520.0" y="361.0" text-anchor="middle" fill="#e3e3e3" font-size="11">a fixed priority ladder in Python, no model involved</text>
<text x="520.0" y="376.0" text-anchor="middle" fill="#e3e3e3" font-size="11">HIGH task &gt; live job stage &gt; interview on the calendar</text>
<text x="520.0" y="391.0" text-anchor="middle" fill="#e3e3e3" font-size="11">&gt; overdue task &gt; urgent email &gt; first event of the day</text>
<rect x="604" y="320" width="94" height="17" rx="8.5" fill="#1a6b5a" stroke="#2a8b76" stroke-width="1"/>
<text x="651.0" y="332.5" text-anchor="middle" fill="#cdf2e6" font-size="9.5" font-weight="700" letter-spacing="0.4">PYTHON ONLY</text>
<line x1="520.0" y1="416" x2="520.0" y2="437" stroke="#9aa0a6" stroke-width="1.6"/>
<polygon points="520.0,446 516.4,437 523.6,437" fill="#9aa0a6"/>
<rect x="330" y="446" width="380" height="62" rx="8" fill="#4c3f91" stroke="#6b5cb8" stroke-width="1.5"/>
<text x="520.0" y="465.0" text-anchor="middle" fill="#fff" font-size="13.5" font-weight="600">4 · Write the words</text>
<text x="520.0" y="482.0" text-anchor="middle" fill="#e3e3e3" font-size="11">the sentence, prep notes, the narrative paragraph</text>
<text x="520.0" y="497.0" text-anchor="middle" fill="#e3e3e3" font-size="11">canned text if the model is unavailable</text>
<rect x="622" y="454" width="76" height="17" rx="8.5" fill="#7a2318" stroke="#a3392a" stroke-width="1"/>
<text x="660.0" y="466.5" text-anchor="middle" fill="#ffd9d2" font-size="9.5" font-weight="700" letter-spacing="0.4">MODEL</text>
<line x1="520.0" y1="508" x2="520.0" y2="529" stroke="#9aa0a6" stroke-width="1.6"/>
<polygon points="520.0,538 516.4,529 523.6,529" fill="#9aa0a6"/>
<rect x="330" y="538" width="380" height="52" rx="8" fill="#1e3a8a" stroke="#3355b5" stroke-width="1.5"/>
<text x="520.0" y="560.0" text-anchor="middle" fill="#fff" font-size="13.5" font-weight="600">5 · Publish</text>
<text x="520.0" y="577.0" text-anchor="middle" fill="#e3e3e3" font-size="11">data/daily-brief.json — atomic replace, no history</text>
<line x1="520.0" y1="590" x2="520.0" y2="611" stroke="#9aa0a6" stroke-width="1.6"/>
<polygon points="520.0,620 516.4,611 523.6,611" fill="#9aa0a6"/>
<rect x="330" y="620" width="380" height="52" rx="8" fill="#4c3f91" stroke="#6b5cb8" stroke-width="1.5"/>
<text x="520.0" y="642.0" text-anchor="middle" fill="#fff" font-size="13.5" font-weight="600">Daily Brief card</text>
<text x="520.0" y="659.0" text-anchor="middle" fill="#e3e3e3" font-size="11">Next.js planner reads GET /api/brief</text>
<rect x="778" y="620" width="232" height="52" rx="8" fill="#1a6b5a" stroke="#2a8b76" stroke-width="1.5"/>
<text x="894.0" y="642.0" text-anchor="middle" fill="#fff" font-size="13.5" font-weight="600">SQLite · gtd.db</text>
<text x="894.0" y="659.0" text-anchor="middle" fill="#e3e3e3" font-size="11">calendar, habits, goals</text>
<line x1="778" y1="646" x2="719" y2="646" stroke="#9aa0a6" stroke-width="1.6"/>
<polygon points="710,646 719,649.6 719,642.4" fill="#9aa0a6"/>
<line x1="520.0" y1="672" x2="520.0" y2="693" stroke="#9aa0a6" stroke-width="1.6"/>
<polygon points="520.0,702 516.4,693 523.6,693" fill="#9aa0a6"/>
<rect x="330" y="702" width="380" height="38" rx="8" fill="#8a5a00" stroke="#b87b0a" stroke-width="1.5"/>
<text x="520.0" y="726.0" text-anchor="middle" fill="#fff" font-size="13.5" font-weight="600">ME · read it with the first coffee</text>
<text x="30" y="786" fill="#7c848d" font-size="10.5" font-weight="700" letter-spacing="1.5">ALL OF THE ABOVE RUNS ON ONE LINUX BOX IN MY HOME OFFICE</text>
<rect x="30" y="800" width="326" height="54" rx="8" fill="#7a2318" stroke="#a3392a" stroke-width="1.5"/>
<text x="193.0" y="823.0" text-anchor="middle" fill="#fff" font-size="13.5" font-weight="600">Ollama · llama3.1:8b</text>
<text x="193.0" y="840.0" text-anchor="middle" fill="#e3e3e3" font-size="11">four narrow calls, my hardware, no API</text>
<rect x="372" y="800" width="326" height="54" rx="8" fill="#4a4a4a" stroke="#6b6b6b" stroke-width="1.5"/>
<text x="535.0" y="823.0" text-anchor="middle" fill="#fff" font-size="13.5" font-weight="600">Ubuntu · PM2 · cron</text>
<text x="535.0" y="840.0" text-anchor="middle" fill="#e3e3e3" font-size="11">restarts on reboot, no babysitting</text>
<rect x="714" y="800" width="326" height="54" rx="8" fill="#1a6b5a" stroke="#2a8b76" stroke-width="1.5"/>
<text x="877.0" y="823.0" text-anchor="middle" fill="#fff" font-size="13.5" font-weight="600">No subscription</text>
<text x="877.0" y="840.0" text-anchor="middle" fill="#e3e3e3" font-size="11">and no calendar or mail leaves the network</text>
<text x="30" y="892" fill="#7c848d" font-size="11.5">The model never chooses the priority.  Python ranks the day from a fixed ladder, then the model is handed the winner and asked only to phrase it.</text>
<text x="30" y="912" fill="#7c848d" font-size="11.5">Every model call has a deterministic fallback, so a dead model degrades the brief instead of breaking it.</text>
</svg>
